<?xml version="1.0" encoding="UTF-8" standalone="no"?>
<!DOCTYPE svg PUBLIC "-//W3C//DTD SVG 1.1//EN" "http://www.w3.org/Graphics/SVG/1.1/DTD/svg11.dtd">
<svg version="1.1"
	xmlns="http://www.w3.org/2000/svg"
	xmlns:xlink="http://www.w3.org/1999/xlink" preserveAspectRatio="xMidYMid meet" viewBox="0 0 470 470" width="470" height="470">
	<defs>
		<path d="M410 441.17L409.98 442.36L409.9 443.53L409.79 444.7L409.62 445.84L409.41 446.98L409.16 448.09L408.87 449.19L408.53 450.28L408.15 451.34L407.73 452.39L407.27 453.41L406.78 454.41L406.25 455.39L405.68 456.35L405.07 457.28L404.43 458.19L403.76 459.07L403.05 459.93L402.32 460.75L401.55 461.55L400.75 462.32L399.93 463.05L399.07 463.76L398.19 464.43L397.28 465.07L396.35 465.68L395.39 466.25L394.41 466.78L393.41 467.27L392.39 467.73L391.34 468.15L390.28 468.53L389.2 468.86L388.1 469.16L386.98 469.41L385.85 469.62L384.7 469.79L383.54 469.9L382.37 469.97L381.18 470L91.42 470L90.24 469.97L89.06 469.9L87.9 469.79L86.76 469.62L85.63 469.41L84.51 469.16L83.41 468.86L82.33 468.53L81.27 468.15L80.22 467.73L79.2 467.27L78.2 466.78L77.22 466.25L76.26 465.68L75.33 465.07L74.42 464.43L73.54 463.76L72.68 463.05L71.86 462.32L71.06 461.55L70.29 460.75L69.56 459.93L68.85 459.07L68.18 458.19L67.54 457.28L66.93 456.35L66.36 455.39L65.83 454.41L65.34 453.41L64.88 452.39L64.46 451.34L64.08 450.28L63.74 449.19L63.45 448.09L63.2 446.98L62.99 445.84L62.82 444.7L62.7 443.53L62.63 442.36L62.61 441.17L62.61 28.82L62.63 27.64L62.7 26.46L62.82 25.3L62.99 24.16L63.2 23.03L63.45 21.91L63.74 20.81L64.08 19.73L64.46 18.66L64.88 17.62L65.34 16.6L65.83 15.59L66.36 14.61L66.93 13.66L67.54 12.72L68.18 11.82L68.85 10.94L69.56 10.08L70.29 9.25L71.06 8.46L71.86 7.69L72.68 6.95L73.54 6.25L74.42 5.57L75.33 4.93L76.26 4.33L77.22 3.76L78.2 3.22L79.2 2.73L80.22 2.27L81.27 1.85L82.33 1.47L83.41 1.14L84.51 0.84L85.63 0.59L86.76 0.38L87.9 0.21L89.06 0.1L90.24 0.02L91.42 0L327.98 0L410 89.12L410 441.17ZM91.23 24.22L91.05 24.23L90.86 24.25L90.68 24.28L90.49 24.31L90.32 24.35L90.14 24.4L89.97 24.45L89.8 24.51L89.63 24.58L89.47 24.65L89.31 24.73L89.15 24.82L89 24.91L88.85 25L88.7 25.1L88.56 25.21L88.42 25.32L88.29 25.44L88.16 25.57L88.04 25.69L87.92 25.82L87.81 25.96L87.7 26.1L87.6 26.25L87.5 26.4L87.41 26.55L87.33 26.71L87.25 26.87L87.18 27.03L87.11 27.2L87.05 27.37L86.99 27.54L86.95 27.72L86.91 27.89L86.87 28.08L86.85 28.26L86.83 28.45L86.82 28.63L86.81 28.82L86.81 441.17L86.82 441.36L86.83 441.55L86.85 441.74L86.87 441.92L86.91 442.1L86.95 442.28L86.99 442.46L87.05 442.63L87.11 442.8L87.18 442.97L87.25 443.13L87.33 443.29L87.41 443.45L87.5 443.6L87.6 443.75L87.7 443.9L87.81 444.04L87.92 444.18L88.04 444.31L88.16 444.44L88.29 444.56L88.42 444.68L88.56 444.79L88.7 444.9L88.85 445L89 445.1L89.15 445.19L89.31 445.28L89.47 445.36L89.63 445.43L89.8 445.5L89.97 445.56L90.14 445.61L90.32 445.66L90.49 445.7L90.68 445.74L90.86 445.76L91.05 445.78L91.23 445.79L91.42 445.8L381.18 445.8L381.31 445.79L381.43 445.78L381.56 445.77L381.68 445.75L381.81 445.72L381.93 445.69L382.06 445.65L382.18 445.61L382.3 445.56L382.42 445.51L382.54 445.45L382.66 445.38L382.78 445.31L382.9 445.23L383.02 445.15L383.14 445.06L383.26 444.96L383.37 444.86L383.49 444.75L383.61 444.64L383.72 444.52L383.84 444.4L383.95 444.27L384.06 444.13L384.18 443.99L384.29 443.84L384.4 443.69L384.51 443.53L384.62 443.37L384.73 443.2L384.84 443.02L384.95 442.84L385.06 442.65L385.17 442.46L385.27 442.26L385.38 442.05L385.49 441.84L385.59 441.62L385.7 441.4L385.8 441.17L385.8 441.17L385.8 106.39L322.68 106.39L322.18 106.38L321.69 106.35L321.2 106.3L320.72 106.24L320.24 106.15L319.77 106.04L319.31 105.92L318.85 105.78L318.41 105.62L317.97 105.44L317.54 105.25L317.12 105.04L316.7 104.82L316.3 104.58L315.91 104.33L315.53 104.06L315.16 103.78L314.8 103.48L314.45 103.18L314.12 102.85L313.79 102.52L313.48 102.17L313.19 101.82L312.9 101.45L312.64 101.07L312.38 100.67L312.14 100.27L311.92 99.86L311.71 99.44L311.52 99.01L311.34 98.58L311.18 98.13L311.04 97.67L310.92 97.21L310.81 96.74L310.72 96.27L310.65 95.79L310.6 95.3L310.57 94.81L310.56 94.31L310.56 24.22L91.42 24.22L91.23 24.22ZM370.73 82.2L334.78 43.13L334.78 82.2L370.73 82.2Z" id="b7ao8wwdX"></path>
		<path d="M165.06 326.45C159.97 331.53 157.81 337.64 162.9 342.7C165.32 345.12 170.21 350.02 172.63 352.44C177.75 357.55 183.51 355.04 188.6 349.94C191.04 347.5 206.27 332.3 234.28 304.34C263.21 333.21 278.89 348.86 281.34 351.3C286.43 356.4 293.51 357.97 298.62 352.89C301.05 350.47 304.04 347.48 306.46 345.06C311.58 340 309.96 332.89 304.87 327.81C302.42 325.37 286.74 309.71 257.82 280.84C286.61 252.1 302.24 236.51 304.68 234.06C309.8 228.96 312.31 223.24 307.19 218.13C304.77 215.72 300.65 211.61 298.23 209.19C293.12 204.11 286.26 205.5 281.15 210.58C278.7 213.02 263.08 228.61 234.28 257.35C206.4 229.52 191.23 214.38 188.78 211.94C183.7 206.86 176.63 205.29 171.51 210.36C169.09 212.78 166.1 215.77 163.67 218.19C158.59 223.27 160.16 230.3 165.25 235.43C167.7 237.87 182.86 253.01 210.75 280.84C182.74 308.8 167.51 324.01 165.06 326.45Z" id="exNb2XK4g"></path>
	</defs>
	<g>
		<use xlink:href="#b7ao8wwdX" opacity="1" fill="#ffffff" fill-opacity="1"></use>
		<use xlink:href="#exNb2XK4g" opacity="1" fill="#bf0000" fill-opacity="1"></use>
	</g>
</svg>