<?xml version="1.0" standalone="no"?>
<!DOCTYPE svg PUBLIC "-//W3C//DTD SVG 1.1//EN" "http://www.w3.org/Graphics/SVG/1.1/DTD/svg11.dtd" >
<svg xmlns="http://www.w3.org/2000/svg" xmlns:xlink="http://www.w3.org/1999/xlink" version="1.1" viewBox="0 0 711 1000">
  <g transform="matrix(1 0 0 -1 0 850)">
   <path fill="currentColor"
d="M15.9844 510.869q34.709 34.6436 340 339.131l339.131 -339.131q6.95605 -6.95605 10.377 -15.3164q3.41992 -8.36133 4.29004 -15.5107q0.869141 -7.15039 0.985352 -7.43359q0 -10.0479 -3.41992 -18.2188q-3.4209 -8.1709 -7.76855 -13.5332
q-4.34863 -5.3623 -4.46387 -5.63867q-6.95703 -6.95703 -15.1279 -10.377t-15.0781 -4.29004q-6.9082 -0.869141 -7.18555 -0.985352q-21.7393 0 -37.3916 15.6523l-211.304 211.304v-558.261q0 -25.8232 -18.8438 -41.4521q-14.7637 -12.2227 -34.2002 -11.5908
q-22.582 0.734375 -33.9131 11.5908q-17.8301 17.0898 -19.1299 41.4521q-5.2959 149.923 0 558.261q-190.957 -190.174 -212.174 -211.304q-12.6465 -12.6465 -37.3916 -15.6523q-9.66211 0 -17.833 3.41992q-8.1709 3.4209 -13.7266 7.76855t-5.83203 4.46387
q-14.4209 13.6191 -15.6523 37.3906q-1.45605 4.43262 2.03418 16.3076q3.48926 11.875 13.6182 21.9531zM15.6777 511.178q-10.1709 -10.1201 -13.6973 -21.9893t-2.0791 -16.6582q1.21973 -23.873 15.7842 -37.6289l0.130859 -0.0849609
q0.146484 -0.0615234 5.72266 -4.4209q5.5752 -4.35938 13.8457 -7.81152q8.26953 -3.45312 17.9912 -3.45312q24.9463 3.02734 37.6992 15.7793q3.75781 3.74414 211.418 210.551q-5.27344 -407.459 0.0146484 -557.22q1.30859 -24.5371 19.2627 -41.7461
q11.4512 -10.9727 34.2002 -11.7119q19.5996 -0.637695 34.4912 11.6904q19.001 15.7598 19.001 41.7871v557.211l210.562 -210.562q15.7803 -15.7793 37.6992 -15.7793l0.167969 0.0332031q0.145508 0.0615234 7.07617 0.9375t15.1943 4.34375t15.2598 10.4648
l0.09375 0.139648q0.0576172 0.137695 4.41797 5.52344q4.36133 5.38477 7.81543 13.6582q3.4541 8.27246 3.4541 18.377l-0.0332031 0.165039q-0.0625 0.15332 -0.938477 7.3252q-0.875 7.17188 -4.34277 15.625q-3.4668 8.4541 -10.4668 15.4531l-339.13 339.131
l-0.306641 0.306641l-0.307617 -0.306641q-305.296 -304.485 -340 -339.13zM16.291 510.562q43.8506 43.7656 339.693 338.824l338.823 -338.823q6.87988 -6.87988 10.2617 -15.0781q3.38184 -8.19922 4.2793 -15.4639t0.984375 -7.49512
q-0.0419922 -10.0146 -3.36816 -18.0117q-3.32617 -7.99609 -7.71289 -13.3936q-4.38672 -5.39648 -4.50293 -5.6543q-6.96191 -6.90234 -14.9482 -10.2656t-14.9443 -4.23145q-6.95898 -0.868164 -7.2168 -0.96875q-21.5254 0.0527344 -37 15.5244l-211.305 211.305
l-0.742188 0.742188v-1.0498v-558.261q0 -25.6172 -18.6855 -41.1172q-14.6357 -12.1182 -33.9082 -11.4912q-22.417 0.728516 -33.627 11.4707q-17.7061 16.9697 -18.9961 41.1572q-5.29395 149.883 0.000976562 558.235l0.0136719 1.06641l-0.755859 -0.751953
q-190.959 -190.175 -212.174 -211.306q-3.71875 -3.71777 -7.6875 -6.47754q-3.96973 -2.75977 -6.93652 -4.24023t-6.82324 -2.50195q-3.85645 -1.02246 -5.79102 -1.29883q-1.93555 -0.276367 -5.50195 -0.591797q-3.56738 -0.316406 -4.39746 -0.416992
q0.763672 -6.28613 -31.2051 12.3652q-4.45312 2.59863 -5.8916 3.22363q-14.2422 13.5244 -15.46 37.0449l-0.0214844 0.113281q-0.734375 2.2373 -0.0644531 7.73047t4.63379 14.3018q3.96387 8.80762 10.9766 15.7852zM0.00195312 -102.227q0 19.6016 8.69531 27.8262
q0.0644531 0.0605469 3.51172 3.80762t6.05566 5.58496q2.60742 1.83789 7.78809 4.81543q5.17969 2.97656 12.4434 4.38477q7.26367 1.40723 16.2881 1.40723h601.739q31.4502 -0.296875 46.0869 -19.7822q8.17188 -10.877 8.69629 -28.0518
q0.567383 -18.6572 -8.69629 -28.4697q-0.28125 -0.297852 -2.44531 -2.67773q-2.16504 -2.38086 -3.03125 -3.22168t-3.50879 -3.07031q-2.64258 -2.22852 -4.64648 -3.24609q-2.00293 -1.01855 -5.62402 -2.66113q-3.62109 -1.64355 -7.26172 -2.4043
q-3.6416 -0.759766 -8.74121 -1.38281q-5.10059 -0.623047 -10.8281 -0.623047q-150.759 0.496094 -601.739 0q-31.0518 -0.316406 -46.0869 19.9395q-8.69531 11.7158 -8.69531 27.8252z" />
  </g>

</svg>
