<?xml version="1.0" encoding="UTF-8" standalone="no"?>
<!DOCTYPE svg PUBLIC "-//W3C//DTD SVG 1.1//EN" "http://www.w3.org/Graphics/SVG/1.1/DTD/svg11.dtd">
<svg version="1.1" xmlns="http://www.w3.org/2000/svg" xmlns:xlink="http://www.w3.org/1999/xlink" preserveAspectRatio="xMidYMid meet" viewBox="0 0 820 1150" width="820" height="1150"><defs><path d="M18.38 390C44.99 363.44 175.32 233.44 409.38 0C643.38 234 773.38 364 799.38 390C817.38 408 815.58 429.6 817.38 434C817.38 460 801.18 472.7 799.38 477C781.38 495 760.68 493.2 756.38 495C739.71 495 725.38 489 713.38 477L470.38 234C470.38 619.2 470.38 833.2 470.38 876C470.38 907.33 455.51 918.03 448.71 923.67C441.91 929.3 425.68 937.53 409.38 937C393.08 936.47 378.29 931.25 370.38 923.67C362.46 916.08 349.79 902.42 348.38 876C344.32 761.06 344.32 547.06 348.38 234C201.98 379.8 120.64 460.8 104.38 477C86.38 495 70.68 493.87 61.38 495C36.38 495 22.68 478.8 18.38 477C0.38 460 1.04 446.75 0.38 434C-0.96 429.92 0.46 407.83 18.38 390Z" id="g1nD1qtvNo"></path><path d="M0 1095.06C0 1079.06 3.92 1068.81 10 1063.06C16.08 1057.31 26.31 1040.06 63 1040.06C392.44 1040.06 627.9 1040.06 755 1040.06C790.93 1040.4 801.87 1054.65 808 1062.81C814.13 1070.97 817.67 1084.25 818 1095.07C818.33 1105.88 815.25 1120.13 808 1127.81C800.75 1135.49 791.27 1149.99 755 1149.99C627.36 1149.57 398.88 1149.62 63 1149.99C26.67 1150.36 14.75 1133.46 10 1127.06C5.25 1120.66 0 1111.06 0 1095.06Z" id="d1fVaS6MEk"></path></defs><g><g><g><use xlink:href="#g1nD1qtvNo" opacity="1" fill="#000000" fill-opacity="1"></use><g><use xlink:href="#g1nD1qtvNo" opacity="1" fill-opacity="0" stroke="#000000" stroke-width="1" stroke-opacity="0"></use></g></g><g><use xlink:href="#d1fVaS6MEk" opacity="1" fill="#000000" fill-opacity="1"></use></g></g></g></svg>